<svg width="113.99999999999999" height="928" xmlns="http://www.w3.org/2000/svg">
 <g>
  <title>background</title>
  <rect x="-1" y="-1" width="116" height="930" id="canvas_background" fill="none"/>
 </g>

 <g>
  <title>Layer 1</title>
  <rect y="861" fill="#2b5ca9" width="114" height="29.5" id="svg_1"/>
  <path id="path4199" fill="#3C5563" d="m20.913,19.853l-0.265,0.266l-0.728,-0.728c1.493,-1.766 1.425,-4.403 -0.243,-6.071c-1.758,-1.757 -4.606,-1.76 -6.361,-0.004c-1.756,1.755 -1.754,4.604 0.004,6.361c1.668,1.669 4.305,1.736 6.071,0.243l0.728,0.728l-0.266,0.265l3.088,3.087l1.06,-1.06l-3.088,-3.087zm-6.532,-1.235c-1.172,-1.172 -1.175,-3.07 -0.004,-4.242c1.17,-1.17 3.07,-1.168 4.242,0.004c1.172,1.172 1.173,3.071 0.003,4.241c-1.171,1.171 -3.069,1.169 -4.241,-0.003z"/>
  <path id="path4201" fill="#3C5563" d="m18.388,56.563c-0.059,-0.131 -0.12,-0.292 -0.18,-0.481c-0.059,-0.188 -0.09,-0.4 -0.09,-0.633c0,-0.276 0.071,-0.528 0.212,-0.756c0.142,-0.228 0.32,-0.447 0.535,-0.659c0.214,-0.211 0.446,-0.423 0.694,-0.634c0.247,-0.211 0.478,-0.453 0.693,-0.727c0.215,-0.274 0.394,-0.575 0.535,-0.9c0.141,-0.326 0.213,-0.697 0.213,-1.113c0,-0.44 -0.084,-0.824 -0.253,-1.155c-0.17,-0.331 -0.401,-0.606 -0.694,-0.829c-0.293,-0.224 -0.637,-0.391 -1.029,-0.506c-0.393,-0.112 -0.807,-0.17 -1.249,-0.17c-0.958,0 -1.883,0.261 -2.775,0.779l0,1.881c0.735,-0.722 1.507,-1.083 2.319,-1.083c0.251,0 0.486,0.03 0.706,0.089c0.22,0.062 0.416,0.151 0.587,0.272c0.172,0.123 0.307,0.276 0.405,0.455c0.098,0.184 0.146,0.396 0.146,0.639c0,0.271 -0.066,0.519 -0.2,0.749c-0.134,0.228 -0.3,0.444 -0.497,0.65c-0.2,0.206 -0.413,0.418 -0.645,0.633c-0.231,0.218 -0.447,0.442 -0.645,0.675c-0.198,0.232 -0.365,0.483 -0.498,0.753c-0.134,0.268 -0.2,0.567 -0.2,0.897c0,0.214 0.019,0.427 0.057,0.643c0.038,0.218 0.082,0.395 0.131,0.53l1.722,0.001l0,0zm0.025,3.121c0.229,-0.206 0.342,-0.461 0.342,-0.765c0,-0.309 -0.113,-0.563 -0.342,-0.764c-0.234,-0.219 -0.507,-0.325 -0.816,-0.325c-0.316,0 -0.591,0.106 -0.825,0.325c-0.229,0.2 -0.342,0.455 -0.342,0.764c0,0.304 0.113,0.559 0.342,0.765c0.239,0.211 0.514,0.316 0.825,0.316c0.303,0 0.576,-0.105 0.816,-0.316l0,0z"/>
  <path id="path4203" fill="#ffffff" d="m18,127.999c-2.276,0 -4.363,0.802 -6,2.136l0,1.865l12,0l0,-1.865c-1.636,-1.334 -3.724,-2.136 -6,-2.136zm0,-2c1.656,0 4,-1.343 3,-2.999c-1,-1.656 -1.343,-3 -3,-3c-1.656,0 -3,1.343 -3,3c0,1.656 1.344,2.999 3,2.999z" stroke="#ffffff"/>
  <path id="path4205" fill="#FFFFFF" d="m24.889,193.232l-2.01,2.01l-2.121,-2.121l2.01,-2.01c-0.247,-0.065 -0.501,-0.111 -0.768,-0.111c-1.657,0 -3,1.343 -3,3c0,0.267 0.046,0.521 0.111,0.768l-4.345,4.344c-0.245,-0.067 -0.499,-0.112 -0.766,-0.112c-1.657,0 -3,1.343 -3,3c0,0.268 0.046,0.521 0.111,0.768l2.01,-2.01l2.121,2.121l-2.01,2.01c0.247,0.065 0.501,0.111 0.768,0.111c1.657,0 3,-1.343 3,-3c0,-0.267 -0.045,-0.521 -0.111,-0.768l4.346,-4.344c0.244,0.067 0.498,0.112 0.765,0.112c1.657,0 3,-1.343 3,-3c0,-0.268 -0.046,-0.521 -0.111,-0.768z"/>
  <path id="path4207" fill="#FFFFFF" d="m11,372l0,2l14,0l0,-2l-14,0zm0,7l14,0l0,-2l-14,0l0,2zm0,5l14,0l0,-2l-14,0l0,2z"/>
  <path id="path4209" fill="#768D99" d="m52.875,565.125l2,0l0,-14l-2,0l0,14zm-6,-6l14,0l0,-2l-14,0l0,2z"/>
  <path id="path4211" fill="#FFFFFF" d="m18.697,409.253c0.181,0.223 0.48,0.333 0.897,0.333c0.444,0 0.79,-0.157 1.036,-0.47c0.245,-0.313 0.369,-0.661 0.369,-1.047c0,-0.316 -0.103,-0.572 -0.308,-0.771c-0.204,-0.198 -0.485,-0.298 -0.84,-0.298c-0.417,0 -0.76,0.138 -1.027,0.416c-0.267,0.278 -0.4,0.612 -0.4,1.003c0.001,0.336 0.092,0.614 0.273,0.834zm-3.349,4.918c0.931,-0.605 1.524,-0.909 1.785,-0.909c0.156,0 0.236,0.088 0.236,0.266c0,0.358 -0.287,1.554 -0.862,3.581c-0.258,0.907 -0.429,1.549 -0.507,1.918c-0.079,0.366 -0.118,0.698 -0.118,0.989c0,0.29 0.064,0.526 0.196,0.71c0.129,0.185 0.328,0.274 0.594,0.274c0.211,0 0.461,-0.051 0.744,-0.15c0.283,-0.101 0.757,-0.354 1.421,-0.762c0.663,-0.407 1.233,-0.769 1.713,-1.084l0.041,-0.124l-0.226,-0.377l-0.123,-0.011c-0.891,0.586 -1.437,0.882 -1.643,0.882c-0.075,0 -0.143,-0.034 -0.2,-0.101c-0.058,-0.067 -0.086,-0.146 -0.086,-0.233c0,-0.321 0.296,-1.499 0.893,-3.531c0.34,-1.183 0.565,-1.981 0.672,-2.406c0.105,-0.424 0.159,-0.772 0.159,-1.052c0,-0.209 -0.062,-0.38 -0.185,-0.517c-0.123,-0.138 -0.271,-0.202 -0.441,-0.202c-0.376,0 -0.901,0.179 -1.576,0.537c-0.674,0.361 -1.613,0.974 -2.816,1.839l-0.019,0.123l0.204,0.331l0.144,0.009l0,0z"/>
  <g id="g4213">
   <path id="path4215" fill="#768D99" d="m22,486c0,-1.476 -0.81,-2.745 -1.999,-3.436l0,6.87c1.189,-0.689 1.999,-1.958 1.999,-3.434z"/>
   <g id="g4217">
    <polygon id="polygon4219" fill="#768D99" points="18,493 18,479 13.557,483.375 11,483.375 11,488.625 13.557,488.625   "/>
    <path id="path4221" fill="#768D99" d="m20.001,479.306l0,1.58c2.046,0.8 3.499,2.782 3.499,5.114c0,2.328 -1.453,4.312 -3.499,5.113l0,1.58c2.888,-0.86 4.999,-3.525 4.999,-6.693c0,-3.17 -2.111,-5.834 -4.999,-6.694z"/>
   </g>
  </g>
  <path id="path4223" fill="#768D99" d="m23.5,522c0,0.393 -0.055,0.77 -0.134,1.139l1.216,1.217c0.266,-0.738 0.418,-1.527 0.418,-2.356c0,-3.17 -2.111,-5.834 -4.998,-6.694l0,1.58c2.045,0.8 3.498,2.782 3.498,5.114l0,0zm-3.498,-3.436l0,1.21l1.981,1.98c-0.084,-1.368 -0.858,-2.538 -1.981,-3.19l0,0zm4.698,8.737l-12.01,-12.011l-1.407,1.406l2.478,2.478l-0.204,0.201l-2.557,0l0,5.25l2.557,0l4.443,4.375l0,-5.586l2.002,2.002l0,0.02c0.004,-0.002 0.008,-0.006 0.012,-0.008l1.087,1.087c-0.343,0.235 -0.706,0.444 -1.099,0.6l0,1.58c0.795,-0.237 1.522,-0.622 2.172,-1.105l1.129,1.13l1.414,-1.414l-0.01,-0.011l-0.007,0.006l0,0zm-6.7,-12.301l-1.397,1.375l1.397,1.396l0,-2.771z"/>
  <path id="path4225" fill="#768D99" d="m18,565c1.105,0 2,-0.896 2,-2l-4,0c0,1.104 0.896,2 2,2zm4,-5.375l0,-3c0,-1.861 -1.278,-3.412 -3,-3.858l0,-0.767c0,-0.553 -0.447,-1 -1,-1s-1,0.447 -1,1l0,0.767c-1.722,0.446 -2.999,1.997 -2.999,3.858l0,2.999l-2,2.001l12,0l-2.001,-2z"/>
  <path id="path4227" fill="#768D99" d="m22,592.625c0,-1.861 -1.279,-3.412 -3,-3.858l0,-0.767c0,-0.553 -0.447,-1 -1,-1s-1,0.447 -1,1l0,0.767c-0.012,0.003 -0.021,0.009 -0.033,0.012l5.033,5.032l0,-1.186l0,0zm-4,8.375c1.105,0 2,-0.896 2,-2l-4,0c0,1.104 0.896,2 2,2zm6.993,-1.407l-0.007,0.008l-12.593,-12.596l-1.393,1.397l3.158,3.157c-0.095,0.342 -0.158,0.693 -0.158,1.064l0,2.999l-2,2.001l8.222,0l3.374,3.377l1.404,-1.4l-0.007,-0.007l0,0z"/>
  <g id="g4229">
   <g id="g4231">
    <path id="path4233" fill="#768D99" d="m24,628c-1.104,0 -2,0.896 -2,2s0.896,2 2,2s2,-0.896 2,-2s-0.896,-2 -2,-2zm-12,0c-1.104,0 -2,0.896 -2,2s0.896,2 2,2s2,-0.896 2,-2s-0.896,-2 -2,-2zm6,0c-1.104,0 -2,0.896 -2,2s0.896,2 2,2s2,-0.896 2,-2s-0.896,-2 -2,-2z"/>
   </g>
  </g>
  <path id="path4235" fill="#768D99" d="m24.143,667.974l-6.143,-5.974l-6.142,5.974c-0.478,0.464 -0.478,1.217 0,1.68c0.477,0.464 1.249,0.464 1.726,0l4.416,-4.298l4.417,4.296c0.477,0.464 1.249,0.464 1.726,0s0.476,-1.214 0,-1.678l0,0z"/>
  <path id="path4237" fill="#768D99" d="m11.857,700.026l6.143,5.974l6.142,-5.974c0.478,-0.464 0.478,-1.217 0,-1.68c-0.477,-0.463 -1.249,-0.463 -1.726,0l-4.416,4.298l-4.417,-4.296c-0.477,-0.463 -1.249,-0.463 -1.726,0s-0.476,1.215 0,1.678z"/>
  <path id="path4239" fill="#ACBBC2" d="m18,729c-4.971,0 -9,4.029 -9,9.001c0,4.971 4.029,8.999 9,8.999s9,-4.028 9,-8.999c0,-4.972 -4.029,-9.001 -9,-9.001zm1,14.001l-2,0l0,-6.002l2,0l0,6.002zm0,-8.001l-2,0l0,-2l2,0l0,2z"/>
  <g id="g4241">
   <rect id="rect4243" x="17" y="811" fill="#ACBBC2" width="2" height="2"/>
   <rect id="rect4245" x="13" y="811" fill="#ACBBC2" width="2" height="2"/>
   <rect id="rect4247" x="13" y="807" fill="#ACBBC2" width="2" height="2"/>
   <rect id="rect4249" x="21" y="807" fill="#ACBBC2" width="2" height="2"/>
   <rect id="rect4251" x="21" y="811" fill="#ACBBC2" width="2" height="2"/>
   <rect id="rect4253" x="17" y="807" fill="#ACBBC2" width="2" height="2"/>
  </g>
  <path id="path4255" fill="#ACBBC2" d="m19,783l0,-2l2,0l0,2l-2,0zm0,-6l2,0l0,2l-2,0l0,-2zm0,-4l2,0l0,2l-2,0l0,-2zm0,-4l2,0l0,2l-2,0l0,-2zm0,-4l2,0l0,2l-2,0l0,-2zm-4,16l2,0l0,2l-2,0l0,-2zm0,-4l2,0l0,2l-2,0l0,-2zm0,-4l2,0l0,2l-2,0l0,-2zm0,-4l2,0l0,2l-2,0l0,-2zm0,-4l2,0l0,2l-2,0l0,-2z"/>
  <path id="path4257" fill="#768D99" d="m23.769,841.741c-0.308,-0.321 -0.808,-0.321 -1.116,0l-6.514,6.774l-2.791,-2.902c-0.308,-0.321 -0.809,-0.321 -1.116,0c-0.309,0.319 -0.309,0.84 0,1.161l3.349,3.484c0.309,0.32 0.809,0.32 1.117,0l7.071,-7.356c0.308,-0.321 0.308,-0.84 0,-1.161z"/>
  <path id="path4311" fill="#3C5563" d="m23,84l-10,0c-0.551,0 -1,0.447 -1,1l0,10c0,0.553 0.448,1 0.999,1l10,0c0.553,0 1,-0.447 1,-1l0,-10c0.001,-0.553 -0.447,-1 -0.999,-1zm-1.982,9.82l-6.035,0l0,-1.232l3.54,-4.814l-3.328,0l0,-1.594l5.7,0l0,1.354l-3.444,4.693l3.567,0l0,1.593z" stroke="null"/>
  <g id="g4313">
   <polygon id="polygon4315" fill="#FFFFFF" points="19,231.638 20.362,233 22.994,230.368 25,232.374 25,227 19.628,227    21.632,229.005  "/>
   <polygon id="polygon4317" fill="#FFFFFF" points="11,241 16.373,241 14.368,238.995 17,236.363 15.638,235 13.006,237.633    11,235.627  "/>
  </g>
  <g id="g4319">
   <polygon id="polygon4321" fill="#FFFFFF" points="19,263.626 19,269 24.372,269 22.368,266.995 25,264.362 23.638,263    21.006,265.632  "/>
   <polygon id="polygon4323" fill="#FFFFFF" points="14.994,274.367 17,276.373 17,271 11.627,271 13.632,273.005 11,275.637    12.362,277  "/>
  </g>
  <path id="path4325" fill="#000000" d="m22.35,158.064l-1.063,1.062c0.742,0.786 1.213,1.821 1.213,2.979c0,2.442 -2.016,4.422 -4.5,4.422s-4.5,-1.979 -4.5,-4.422c0,-1.157 0.471,-2.192 1.213,-2.978l-1.063,-1.062c-1.018,1.054 -1.65,2.471 -1.65,4.039c0,3.256 2.688,5.896 6,5.896c3.312,0 6,-2.64 6,-5.896c0,-3.256 -0.633,-2.985 -1.65,-4.04l0,0zm-3.35,-2.064l-2,0l0,6l2,0l0,-6z" fill-opacity="0" stroke="#ffffff"/>
  <path id="path4327" fill="#FFFFFF" d="m96.388,56.563c-0.06,-0.131 -0.12,-0.292 -0.181,-0.481c-0.059,-0.188 -0.09,-0.4 -0.09,-0.633c0,-0.276 0.071,-0.528 0.213,-0.756s0.319,-0.447 0.535,-0.659c0.213,-0.211 0.445,-0.423 0.693,-0.634c0.247,-0.211 0.479,-0.453 0.693,-0.727c0.215,-0.274 0.394,-0.575 0.535,-0.9c0.142,-0.326 0.214,-0.697 0.214,-1.113c0,-0.44 -0.084,-0.824 -0.254,-1.155s-0.4,-0.606 -0.693,-0.829c-0.293,-0.224 -0.637,-0.391 -1.029,-0.506c-0.393,-0.112 -0.807,-0.17 -1.25,-0.17c-0.958,0 -1.883,0.261 -2.774,0.779l0,1.881c0.734,-0.722 1.507,-1.083 2.318,-1.083c0.252,0 0.486,0.03 0.706,0.089c0.22,0.062 0.416,0.151 0.587,0.272c0.172,0.123 0.307,0.276 0.405,0.455c0.099,0.184 0.146,0.396 0.146,0.639c0,0.271 -0.065,0.519 -0.199,0.749c-0.135,0.228 -0.301,0.444 -0.497,0.65c-0.2,0.206 -0.413,0.418 -0.646,0.633c-0.23,0.218 -0.447,0.442 -0.645,0.675c-0.198,0.232 -0.365,0.483 -0.498,0.753c-0.135,0.268 -0.2,0.567 -0.2,0.897c0,0.214 0.019,0.427 0.058,0.643c0.037,0.218 0.082,0.395 0.131,0.53l1.722,0.001l0,0zm0.024,3.121c0.229,-0.206 0.343,-0.461 0.343,-0.765c0,-0.309 -0.113,-0.563 -0.343,-0.764c-0.233,-0.219 -0.506,-0.325 -0.815,-0.325c-0.315,0 -0.591,0.106 -0.825,0.325c-0.229,0.2 -0.342,0.455 -0.342,0.764c0,0.304 0.113,0.559 0.342,0.765c0.239,0.211 0.513,0.316 0.825,0.316c0.302,0 0.576,-0.105 0.815,-0.316z"/>
  <path id="path4329" fill="#FFFFFF" d="m96,127.999c-2.275,0 -4.363,0.802 -6,2.136l0,1.865l12,0l0,-1.865c-1.636,-1.334 -3.725,-2.136 -6,-2.136zm0,-2c1.657,0 3,-1.343 3,-2.999c0,-1.657 -1.343,-3 -3,-3c-1.656,0 -3,1.343 -3,3c0,1.656 1.344,2.999 3,2.999z"/>
  <path id="path4331" fill="#FFFFFF" d="m101,84l-10,0c-0.551,0 -1,0.447 -1,1l0,10c0,0.553 0.448,1 0.999,1l10,0c0.554,0 1,-0.447 1,-1l0,-10c0.001,-0.553 -0.446,-1 -0.999,-1zm-1.982,9.82l-6.035,0l0,-1.232l3.541,-4.814l-3.328,0l0,-1.594l5.699,0l0,1.354l-3.443,4.693l3.566,0l0,1.593z"/>
  <path id="path4333" fill="#FFFFFF" d="m99.35,156.064l-1.062,1.062c0.742,0.786 1.213,1.821 1.213,2.979c0,2.442 -2.016,4.422 -4.5,4.422s-4.5,-1.979 -4.5,-4.422c0,-1.157 0.471,-2.192 1.213,-2.978l-1.062,-1.062c-1.019,1.054 -1.65,2.471 -1.65,4.039c0,3.256 2.688,5.896 6,5.896c3.314,0 6,-2.64 6,-5.896c-0.002,-1.568 -0.635,-2.985 -1.652,-4.04l0,0zm-3.35,-2.064l-2,0l0,6l2,0l0,-6z"/>
  <path id="path4335" fill="#FFFFFF" d="m22.761,452.125c-0.816,1.833 -2.625,3.125 -4.761,3.125c-2.899,0 -5.25,-2.35 -5.25,-5.25c0,-2.898 2.351,-5.25 5.25,-5.25c1.451,0 2.747,0.604 3.693,1.558l0,0.001l-2.82,2.818l6.127,-0.002l0,-6.125l-2.058,2.057c-0.001,-0.001 -0.013,0.011 -0.016,0.011c-1.264,-1.266 -2.994,-2.068 -4.926,-2.068c-3.865,0 -7,3.135 -7,7c0,3.867 3.135,7 7,7c3.122,0 5.737,-2.054 6.64,-4.875l-1.879,0z"/>
  <path id="path4337" fill="#ACBBC2" d="m61.5,837l-15,0c-0.828,0 -1.5,0.672 -1.5,1.5l0,15c0,0.828 0.672,1.5 1.5,1.5l15,0c0.828,0 1.5,-0.672 1.5,-1.5l0,-15c0,-0.828 -0.672,-1.5 -1.5,-1.5zm-0.5,16.002l-14,0l0,-12l14,0l0,12zm-10,-9l-2,0l0,2l2,0l0,-2zm8,0l-2,0l0,2l2,0l0,-2zm-4,0l-2,0l0,2l2,0l0,-2zm0,4l-2,0l0,2l2,0l0,-2zm-4,0l-2,0l0,2l2,0l0,-2zm8,0l-2,0l0,2l2,0l0,-2z"/>
  <path id="path4339" fill="#F3A914" d="m58.787,807.22l-2.186,2.186l-2.009,-2.009l2.186,-2.184c-1.209,-0.447 -2.62,-0.191 -3.592,0.779c-1.02,1.02 -1.251,2.521 -0.708,3.768l-3.478,3.473l1.768,1.767l3.48,-3.477c1.245,0.536 2.742,0.303 3.759,-0.716c0.972,-0.969 1.227,-2.378 0.78,-3.587z"/>
  <path id="path4341" fill="#768D99" d="m55,777l0,-5.211c0.881,-0.387 1.5,-1.264 1.5,-2.289c0,-1.381 -1.121,-2.5 -2.5,-2.5c-1.383,0 -2.5,1.119 -2.5,2.5c0,1.025 0.617,1.904 1.5,2.289l0,5.211l-3,0l4,4l4,-4l-3,0z"/>
  <path id="path4343" fill="#768D99" d="m53,735l0,5.211c-0.881,0.387 -1.5,1.264 -1.5,2.289c0,1.381 1.121,2.5 2.5,2.5c1.383,0 2.5,-1.119 2.5,-2.5c0,-1.025 -0.617,-1.904 -1.5,-2.289l0,-5.211l3,0l-4,-4l-4,4l3,0z"/>
  <path id="path4345" fill="#768D99" d="m61.682,695.711c-0.424,-0.446 -1.111,-0.449 -1.535,0l-8.45,8.907l-3.844,-4.052c-0.424,-0.447 -1.111,-0.447 -1.534,0c-0.425,0.446 -0.426,1.172 0,1.616l4.604,4.858c0.214,0.224 0.494,0.334 0.774,0.333c0.28,0.001 0.56,-0.109 0.773,-0.333l9.209,-9.713c0.426,-0.445 0.426,-1.169 0.003,-1.616l0,0z"/>
  <path id="path4347" fill="#FFFFFF" d="m98.912,19.853l-0.266,0.266l-0.728,-0.728c1.493,-1.766 1.425,-4.403 -0.243,-6.071c-1.758,-1.757 -4.605,-1.76 -6.361,-0.004c-1.756,1.755 -1.754,4.604 0.004,6.361c1.668,1.669 4.306,1.736 6.072,0.243l0.728,0.728l-0.267,0.265l3.088,3.087l1.061,-1.06l-3.088,-3.087zm-6.532,-1.235c-1.172,-1.172 -1.175,-3.07 -0.004,-4.242c1.17,-1.17 3.069,-1.168 4.242,0.004c1.172,1.172 1.173,3.071 0.003,4.241c-1.171,1.171 -3.069,1.169 -4.241,-0.003z"/>
  <g id="g4349">
   <path id="path4351" fill="#FFFFFF" d="m18,299l-2.102,4.7l-4.898,0.649l0.712,0.703l0,0l0.189,0.188l0,0l2.699,2.664l0,0l0,0l-0.927,5.096l0.866,-0.501l0,0l0.271,-0.156l0,0l3.19,-1.845l3.19,1.845l0,0l0.271,0.156l0,0l0.865,0.501l-0.927,-5.098l0,0l0,0l2.7,-2.664l0,0l0.189,-0.188l0,0l0.712,-0.701l-4.899,-0.648l-2.101,-4.701l0,0zm-4.844,6.071l2.873,-0.38l0.554,-0.073l0.228,-0.51l1.189,-2.658l1.188,2.658l0.228,0.51l0.554,0.073l2.874,0.38l-2.147,2.119l-0.376,0.37l0.094,0.521l0.54,2.971l-2.454,-1.42l-0.501,-0.289l-0.501,0.289l-2.455,1.42l0.54,-2.971l0.094,-0.521l-0.376,-0.37l-2.146,-2.119l0,0z"/>
  </g>
  <g id="g4353">
   <path id="path4355" fill="#F3A914" d="m16.241,338.158c0,0 -2.889,0.383 -4.163,0.552c0.926,0.914 3.062,3.021 3.062,3.021s-0.539,2.963 -0.781,4.296c1.149,-0.666 3.641,-2.107 3.641,-2.107s2.492,1.441 3.641,2.106c-0.242,-1.333 -0.781,-4.296 -0.781,-4.296s2.135,-2.106 3.062,-3.021c-1.274,-0.169 -4.163,-0.552 -4.163,-0.552s-1.199,-2.683 -1.759,-3.934c-0.56,1.253 -1.759,3.935 -1.759,3.935z"/>
   <path id="path4357" fill="#F3A914" d="m18,333l-2.102,4.7l-4.898,0.649l0.712,0.703l0,0l0.189,0.188l0,0l2.699,2.664l0,0l0,0l-0.927,5.096l0.866,-0.501l0,0l0.271,-0.156l0,0l3.19,-1.845l3.19,1.845l0,0l0.271,0.156l0,0l0.865,0.501l-0.927,-5.098l0,0l0,0l2.7,-2.664l0,0l0.189,-0.188l0,0l0.712,-0.701l-4.899,-0.648l-2.101,-4.701l0,0zm-4.844,6.071l2.873,-0.38l0.554,-0.073l0.228,-0.51l1.189,-2.658l1.188,2.658l0.228,0.51l0.554,0.073l2.874,0.38l-2.147,2.119l-0.376,0.37l0.094,0.521l0.54,2.971l-2.454,-1.42l-0.501,-0.289l-0.501,0.289l-2.455,1.42l0.54,-2.971l0.094,-0.521l-0.376,-0.37l-2.146,-2.119l0,0z"/>
  </g>
  <path id="path4359" fill="#FFFFFF" d="m53,671l2,0l0,-6l-2,0l0,6zm0,-10l0,2l2,0l0,-2l-2,0z"/>
  <path id="path4361" fill="#768D99" d="m59.111,629.979l1.889,-0.472c-0.186,-0.869 -0.529,-1.678 -0.997,-2.396l-1.663,0.998l-1.447,-1.448l0.998,-1.663c-0.72,-0.468 -1.528,-0.812 -2.396,-0.997l-0.472,1.888l-2.045,0l-0.473,-1.889c-0.868,0.186 -1.676,0.529 -2.396,0.997l0.998,1.663l-1.446,1.446l-1.663,-0.998c-0.47,0.721 -0.813,1.528 -0.997,2.397l1.886,0.473l0,2.045l-1.887,0.472c0.184,0.869 0.527,1.676 0.996,2.396l1.664,-0.998l1.446,1.446l-0.998,1.663c0.721,0.47 1.528,0.813 2.396,0.997l0.472,-1.886l2.045,0l0.472,1.887c0.869,-0.184 1.678,-0.527 2.397,-0.997l-1,-1.663l1.447,-1.445l1.664,0.997c0.469,-0.721 0.812,-1.526 0.997,-2.396l-1.888,-0.472l0,-2.045l0.001,0zm-5.112,3.067c-1.129,0 -2.045,-0.914 -2.045,-2.045s0.916,-2.045 2.045,-2.045c1.13,0 2.045,0.914 2.045,2.045s-0.915,2.045 -2.045,2.045z"/>
  <path id="path4363" fill="#768D99" d="m56,588l0,-1l-4,0l0,1l-4,0l0,2l12,0l0,-2l-4,0zm-7,11.5c0,0.828 0.672,1.5 1.5,1.5l7,0c0.828,0 1.5,-0.672 1.5,-1.5l0,-8.5l-10,0l0,8.5zm6.25,-6.5l1.5,0l0,6l-1.5,0l0,-6zm-4,0l1.5,0l0,6l-1.5,0l0,-6z"/>
  <g id="g4365">
   <g id="g4367">
    <path id="path4369" fill="#768D99" d="m55,524.25l-5.625,0l0,1.375l5.625,0l0,-1.375zm0,-3.125l-5.625,0l0,1.375l5.625,0l0,-1.375zm-4.75,-6l0,2.75l-3.375,0l0,11l10.625,0l0,-2.75l3.375,0l0,-11l-10.625,0zm5.625,12.073l-7.375,0l0,-7.698l7.375,0l0,7.698zm3.316,-2.75l-1.691,0l0,-6.573l-5.625,0l0,-0.896l7.316,0l0,7.469z"/>
   </g>
  </g>
  <g id="g4371" display="none">
   <path id="path4373" fill="#768D99" d="m154.003,480.56l-0.989,-0.988c-0.629,-0.721 -1.798,-0.721 -2.517,0l-1.169,1.168c0,0.04 -0.021,0.083 -0.04,0.131l-7.872,7.87c0,0.091 -0.09,0.181 -0.09,0.271l-0.539,3.416c-0.09,0.09 0,0.271 0.09,0.36c0.09,0 0.27,0.089 0.359,0.089l3.416,-0.449c0.091,0 0.181,0 0.271,-0.09l7.912,-7.911c0,-0.064 0.041,-0.145 0.065,-0.245l1.103,-1.104c0.72,-0.631 0.72,-1.8 0,-2.518m-8.586,9.933l-2.248,-2.247l6.474,-6.473l2.246,2.246l-6.472,6.474zm-0.942,0.945l-2.697,0.45l0.449,-2.697l0.314,-0.314l2.248,2.248l-0.314,0.313l0,0zm8.989,-8.991l-0.899,0.897l-2.248,-2.247l0.899,-0.898c0.36,-0.359 0.899,-0.359 1.259,0l0.989,0.987c0.359,0.362 0.359,0.901 0,1.261"/>
  </g>
  <g id="g4375">
   <path id="path4377" fill="#768D99" d="m57.268,480.449l1.646,1.637l-5.789,5.789l-1.644,-1.638l5.787,-5.788zm3.38,-1.201l-0.379,-0.37c-0.394,-0.395 -1.035,-0.395 -1.43,0l-0.977,0.978l1.646,1.638l1.14,-1.141c0.307,-0.306 0.307,-0.799 0,-1.105m-10.641,9.924c-0.042,0.187 0.127,0.354 0.314,0.31l2.105,-1.081l-1.565,-1.543l-0.854,2.314z"/>
  </g>
  <g id="g4379" display="none">
   <path id="path4381" fill="#768D99" d="m128.197,482.102l2.191,2.19l-5.547,5.545l-2.189,-2.189l5.545,-5.546zm3.853,-0.53l-0.977,-0.978c-0.378,-0.378 -0.991,-0.378 -1.37,0l-0.936,0.937l2.19,2.19l1.092,-1.092c0.294,-0.291 0.294,-0.764 0.001,-1.057m-10.544,9.154c-0.04,0.182 0.123,0.342 0.301,0.298l2.441,-0.593l-2.189,-2.19l-0.553,2.485l0,0z"/>
  </g>
  <g id="g4383">
   <rect id="rect4385" x="46.875" y="490.75" fill="#768D99" width="14" height="2"/>
  </g>
  <g id="g4387" display="none">
   <path id="path4389" fill="#768D99" d="m136.464,517.804l-2.834,0l0,-2.518c0,-0.366 -0.295,-0.661 -0.661,-0.661l-11.057,0c-0.366,0 -0.661,0.295 -0.661,0.661l0,11.371c0,0.366 0.295,0.661 0.661,0.661l2.835,0l0,2.518c0,0.366 0.295,0.66 0.661,0.66l11.057,0c0.366,0 0.661,-0.294 0.661,-0.66l0,-11.372c-0.001,-0.362 -0.296,-0.66 -0.662,-0.66m-13.892,8.192l0,-10.049l9.732,0l0,1.855l-6.897,0c-0.366,0 -0.661,0.294 -0.661,0.66l0,7.532l-2.174,0.002l0,0zm13.231,3.182l-9.734,0l0,-10.05l9.731,0l0,10.05l0.003,0z"/>
   <g id="g4391" display="inline">
    <path id="path4393" fill="#768D99" d="m128.452,522.511l5.048,0c0.366,0 0.661,-0.295 0.661,-0.661c0,-0.365 -0.295,-0.66 -0.661,-0.66l-5.048,0c-0.366,0 -0.661,0.295 -0.661,0.66c0.001,0.363 0.295,0.661 0.661,0.661"/>
    <path id="path4395" fill="#768D99" d="m128.452,527.117l5.048,0c0.366,0 0.661,-0.295 0.661,-0.66c0,-0.366 -0.295,-0.661 -0.661,-0.661l-5.048,0c-0.366,0 -0.661,0.295 -0.661,0.661c0.001,0.365 0.295,0.66 0.661,0.66"/>
   </g>
  </g>
  <path id="path4237-4" fill="#0275B8" d="m97.974,695.856l-5.974,6.144l5.974,6.142c0.464,0.479 1.216,0.479 1.679,0c0.463,-0.477 0.463,-1.249 0,-1.726l-4.298,-4.416l4.296,-4.417c0.463,-0.478 0.463,-1.249 0,-1.727c-0.463,-0.476 -1.214,-0.475 -1.677,0z"/>
  <path id="path4237-4-1" fill="#FFFFFF" d="m97.974,729.357l-5.974,6.143l5.974,6.143c0.464,0.478 1.216,0.478 1.679,0s0.463,-1.249 0,-1.727l-4.297,-4.416l4.296,-4.417c0.463,-0.477 0.463,-1.249 0,-1.726s-1.215,-0.476 -1.678,0z"/>
  <rect x="241.5" y="841" fill="none" width="115" height="29" id="svg_2" rx="3"/>
  <text transform="matrix(1,0,0,1,4.5,881.6094) " fill="#FFFFFF" font-family="'SimHei'" font-size="18" id="svg_3">统一监控平台</text>
  <rect x="0" stroke="null" y="900" fill="#2b5ca9" width="110.750001" height="25" id="svg_4"/>
  <rect stroke="null" x="5.5" y="894.500002" fill="none" width="108.999989" height="38.999998" id="svg_5"/>
  <text transform="matrix(0.8961112201409198,0,0,0.9601702579810597,5.957110463856126,918.4027406875153) " fill="#FFFFFF" font-family="'SimHei'" font-size="19" id="svg_6" y="0" x="0">统一监控平台</text>
 </g>
</svg>